<svg width="26" height="26" viewBox="0 0 26 26" fill="none" xmlns="http://www.w3.org/2000/svg">
<g clip-path="url(#clip0_126_1470)">
<path fill-rule="evenodd" clip-rule="evenodd" d="M24.6666 13.2839C24.6666 12.3975 24.5871 11.5452 24.4394 10.7271H12.6666V15.5623H19.3939C19.1041 17.1248 18.2234 18.4486 16.8996 19.335V22.4714H20.9394C23.303 20.2952 24.6666 17.0907 24.6666 13.2839Z" fill="#4285F4"/>
<path fill-rule="evenodd" clip-rule="evenodd" d="M12.6667 25.5C16.0417 25.5 18.8712 24.3807 20.9394 22.4716L16.8996 19.3352C15.7803 20.0852 14.3485 20.5284 12.6667 20.5284C9.41099 20.5284 6.65531 18.3295 5.67235 15.375H1.49622V18.6136C3.55303 22.6989 7.78031 25.5 12.6667 25.5Z" fill="#17A261"/>
<path fill-rule="evenodd" clip-rule="evenodd" d="M5.67231 15.3749C5.42231 14.6249 5.28026 13.8237 5.28026 12.9999C5.28026 12.176 5.42231 11.3749 5.67231 10.6249V7.38623H1.49617C0.64958 9.07373 0.166626 10.9828 0.166626 12.9999C0.166626 15.0169 0.64958 16.926 1.49617 18.6135L5.67231 15.3749Z" fill="#FBBC05"/>
<path fill-rule="evenodd" clip-rule="evenodd" d="M12.6667 5.47159C14.5019 5.47159 16.1496 6.10227 17.4451 7.34091L21.0303 3.75568C18.8655 1.73864 16.036 0.5 12.6667 0.5C7.78031 0.5 3.55303 3.30114 1.49622 7.38636L5.67235 10.625C6.65531 7.67045 9.41099 5.47159 12.6667 5.47159Z" fill="#EA4335"/>
</g>
<defs>
<clipPath id="clip0_126_1470">
<rect width="25" height="25" fill="white" transform="translate(0.166626 0.5)"/>
</clipPath>
</defs>
</svg>
